<svg width="472" height="325" viewBox="0 0 472 325" fill="none" xmlns="http://www.w3.org/2000/svg">
<g clip-path="url(#clip0_2009_273)">
<path d="M450.242 397.338C448.897 398.708 447.455 400.024 445.988 401.27C444.982 404.932 443.88 408.567 442.699 412.067C439.762 420.719 436.228 429.009 432.206 436.929C440.999 423.148 448.421 408.419 454.172 392.861C452.934 394.38 451.67 395.899 450.242 397.338ZM466.688 285.278C464.729 293.565 460.543 301.175 454.034 307.766C452.961 308.863 451.749 309.963 450.498 311.049C450.947 313.897 451.355 316.746 451.694 319.594C451.775 320.259 451.83 320.91 451.898 321.575C452.209 324.423 452.481 327.271 452.7 330.107C452.796 331.355 452.851 332.59 452.932 333.823C453.055 336.184 453.162 338.529 453.217 340.862C453.243 342.069 453.285 343.262 453.298 344.456C453.298 345.12 453.34 345.785 453.34 346.449C453.34 347.44 453.258 348.43 453.243 349.42C453.204 352.159 453.123 354.9 452.987 357.613C452.906 359.119 452.809 360.61 452.7 362.103C452.496 364.858 452.224 367.61 451.911 370.349C451.747 371.746 451.598 373.143 451.407 374.542C451.013 377.458 450.538 380.374 450.021 383.262C449.804 384.442 449.626 385.623 449.394 386.79C448.851 389.529 448.211 392.242 447.558 394.955C448.062 394.48 448.619 394.019 449.094 393.532C452.711 389.868 455.631 385.909 457.971 381.745C464.753 360.016 468.409 336.931 468.409 313.003C468.409 303.619 467.785 294.381 466.683 285.28L466.688 285.278ZM429.268 184.514C429.649 185.694 429.989 186.875 430.274 188.055C432.423 190.659 434.489 193.317 436.471 196.003C434.175 192.11 431.783 188.258 429.268 184.514ZM380.702 131.955C372.384 127.006 363.168 123.22 353.066 120.684C357.402 125.378 360.27 130.152 361.452 134.629C386.367 146.687 407.749 162.719 425.189 182.238C424.048 179.009 422.389 175.687 420.472 172.335C408.905 157.32 395.544 143.758 380.7 131.957L380.702 131.955ZM331.265 101.869C330.027 101.898 328.721 102.059 327.323 102.427C335.955 106.713 343.565 111.691 349.384 116.994C356.057 118.391 362.379 120.33 368.36 122.785C356.725 114.727 344.301 107.717 331.265 101.869ZM389.603 486.601C374.774 494.36 355.581 499.501 332.908 501.508C320.186 517.459 305.804 529.327 290.077 536.867C295.679 536.121 300.952 535.089 305.898 533.815C337.162 524.009 365.571 507.731 389.601 486.599L389.603 486.601ZM369.65 427.612C368.603 431.138 367.516 434.638 366.36 438.002C358.572 461.005 348.337 480.97 335.981 497.477C363.382 494.792 385.539 487.55 400.504 476.454C403.562 473.389 406.511 470.23 409.407 467.002C422.251 451.024 432.256 432.685 439.148 412.355C440.018 409.791 440.739 407.256 441.486 404.718C424.753 416.966 400.094 424.888 369.648 427.614L369.65 427.612ZM447.223 313.733C432.379 324.978 410.075 332.194 382.617 334.702C382.536 365.789 378.608 395.466 370.954 422.973C402.053 420.083 426.996 411.77 443.17 398.831C450.211 371.731 451.585 343.111 447.221 313.733H447.223ZM312.657 120.004C327.052 127.668 340.834 136.675 353.693 146.982C353.813 146.859 353.936 146.763 354.059 146.643C357.036 143.618 358.136 139.928 357.417 135.711C343.362 129.078 328.329 123.856 312.657 120.004ZM311.638 117.252C327.284 120.887 342.317 125.92 356.425 132.333C354.848 128.13 351.708 123.694 347.101 119.314C336.091 117.143 324.171 116.507 311.638 117.252ZM323.503 103.782C318.731 105.885 313.2 109.75 307.11 115.162C319.847 113.942 331.944 114.227 343.213 115.975C337.749 111.54 331.074 107.363 323.503 103.782ZM293.015 90.8428C303.25 92.7818 313.772 96.1046 323.488 100.527L323.514 100.54C324.467 100.16 325.376 99.8886 326.274 99.6437C314.733 94.7886 302.704 90.8953 290.294 87.9398C291.232 88.8208 292.143 89.7695 293.013 90.8428H293.015ZM11.9053 256.901C13.1014 253.362 14.4487 249.782 15.8749 246.24C15.807 244.76 15.8201 243.296 15.8749 241.831C13.7806 248.26 11.9886 254.812 10.466 261.47C10.9283 259.938 11.3905 258.418 11.9053 256.899V256.901ZM5.63986 334.214C7.77359 350.872 17.588 369.182 34.1717 387.492C33.9394 366.51 37.7053 344.305 45.467 321.424C46.6368 317.979 47.9008 314.52 49.2174 311.13C30.7191 291.259 19.5443 271.211 16.6241 252.833C15.8354 254.936 15.0051 257.011 14.2712 259.153C7.95105 277.789 4.75702 296.846 4.67596 315.944C4.74387 321.234 5.00241 326.482 5.42303 331.676C5.50409 332.531 5.54565 333.344 5.63986 334.212V334.214ZM116.052 502.889C97.2246 493.083 80.6015 482.002 67.1177 470.337C67.799 471.096 68.4497 471.924 69.1573 472.67L69.5779 473.09C73.7512 477.228 76.5093 479.967 78.6584 482.028C80.9827 484.131 83.8635 486.641 88.6896 490.871C92.9725 494.248 95.6758 496.377 97.7153 497.951C99.8359 499.499 102.594 501.464 106.89 504.516L107.081 504.625C111.009 507.176 113.537 508.789 115.454 509.996C116.84 510.822 118.58 511.854 120.878 513.196C118.906 510.374 117.289 506.916 116.054 502.889H116.052ZM309.763 502.496C284.968 502.496 258.356 499.431 230.639 493.422C222.062 510.851 213.825 523.737 206.131 531.821C232.65 537.463 258.259 539.579 280.361 537.883C297.692 531.102 313.5 518.974 327.407 501.899C321.669 502.28 315.772 502.496 309.763 502.496ZM344.558 428.698C318.026 428.698 289.536 425.428 259.876 418.999C258.774 422.389 257.661 425.754 256.533 429.092C248.635 452.408 240.521 472.792 232.407 489.776C267.449 497.317 301.35 500.192 330.546 497.982C343.241 481.368 353.735 461.008 361.742 437.423C362.789 434.329 363.768 431.155 364.706 427.996C358.18 428.445 351.439 428.703 344.562 428.703L344.558 428.698ZM284.791 327.107C277.941 357.734 270.043 387.14 261.302 414.566C298.641 422.636 334.811 425.701 366.062 423.395C373.81 395.914 377.859 366.211 378.117 335.056C350.157 337.008 317.956 334.282 284.791 327.107ZM367.067 240.911C362.936 241.195 358.64 241.359 354.221 241.359C337.585 241.359 319.75 239.311 301.21 235.323C297.512 263.387 292.333 292.697 285.81 322.495C318.773 329.617 350.635 332.315 378.117 330.336C377.995 299.994 374.27 269.923 367.067 240.911ZM370.997 240.572C378.404 269.598 382.306 299.653 382.606 329.969C410.049 327.446 432.07 320.134 446.423 308.795C441.545 280.04 431.459 252.059 416.452 225.595C405.959 233.572 390.313 238.725 370.997 240.57V240.572ZM337.258 157.914C351.042 180.782 361.998 207.069 369.828 236.108C388.803 234.357 404.053 229.34 414.139 221.582C398.48 195.011 378.65 171.546 355.161 151.824C350.878 154.956 344.761 157.059 337.258 157.914ZM334.8 153.901C341.8 153.223 347.441 151.433 351.384 148.733C338.321 138.168 324.294 128.958 309.627 121.185C318.666 130.775 327.12 141.694 334.8 153.901ZM307.261 151.907C315.866 153.713 324.143 154.458 331.455 154.106C323.503 141.342 314.709 129.975 305.289 120.17C306.514 129.312 307.18 139.906 307.261 151.909V151.907ZM304.187 114.471C310.045 108.897 315.347 104.814 320.063 102.252C312.153 98.8065 303.765 96.1221 295.488 94.3842C298.831 99.5257 301.754 106.239 304.187 114.471ZM301.142 113.046C298.382 104.908 295.149 98.3299 291.477 93.5688C283.674 92.2135 276.295 91.8047 269.782 92.2659C280.519 97.5692 291.041 104.543 301.14 113.046H301.142ZM298.969 114.417C287.972 105.397 276.501 98.0742 264.783 92.784C257.674 93.8836 252.13 96.2423 248.784 99.6328C246.473 101.981 245.319 104.761 245.235 107.839C263.313 108.178 281.351 110.43 298.967 114.417H298.969ZM170.478 163.637C195.706 146.588 221.911 133.798 248.419 125.566C243.96 120.466 241.336 115.339 240.631 110.578C209.761 110.727 179.532 116.153 150.728 126.704C151.938 138.179 158.733 150.901 170.478 163.637ZM99.8907 227.156C119.368 204.017 141.823 183.536 166.67 166.256C154.818 153.343 147.83 140.35 146.349 128.372C118.198 139.263 93.0645 154.524 71.6152 173.756C73.1246 190.344 82.8974 208.765 99.8885 227.156H99.8907ZM251.38 427.68C252.495 424.425 253.569 421.13 254.642 417.834C221.898 410.347 189.67 399.456 158.856 385.417C152.739 382.637 146.691 379.72 140.831 376.75C139.716 379.856 138.587 383.111 137.433 386.488C129.467 410.008 123.84 431.398 120.632 450.141C126.219 452.963 131.969 455.744 137.759 458.386C166.589 471.503 196.711 481.676 227.307 488.647C235.327 471.653 243.428 451.157 251.378 427.68H251.38ZM282.495 325.424L282.237 326.563H282.223C275.196 357.163 267.191 386.541 258.423 413.953H258.437L256.995 418.376C255.893 421.766 254.78 425.117 253.652 428.453C245.728 451.809 237.667 472.224 229.688 489.192H229.701L229.171 490.331C229.129 490.398 229.103 490.479 229.061 490.547L228.858 490.995L227.975 492.84H227.949C224.292 500.437 220.691 507.191 217.183 513.05C220.976 506.947 224.864 499.798 228.831 491.688L229.633 490.047C237.897 472.915 246.188 452.15 254.276 428.318C255.512 424.669 256.723 420.966 257.933 417.25L258.625 415.108C267.624 387.044 275.726 356.894 282.712 325.481L282.495 325.426V325.424ZM301.795 230.901C324.657 235.837 346.746 237.723 365.911 236.421C358.298 207.34 347.574 181.04 333.994 158.214C332.336 158.323 330.638 158.404 328.87 158.404C322.075 158.404 314.804 157.591 307.272 156.017C307.178 177.717 305.342 202.878 301.795 230.901ZM304.093 155.324C295.53 153.33 287.102 150.482 279.014 146.792C277.531 146.127 276.092 145.423 274.679 144.704C259.565 160.966 243.864 181.191 227.975 204.83C231.454 206.579 235.029 208.33 238.685 209.998C257.674 218.637 277.507 225.324 297.65 229.963C301.497 202.021 303.657 176.93 304.093 155.322V155.324ZM277.588 141.639C278.69 142.181 279.776 142.724 281.001 143.281C288.462 146.685 296.25 149.33 304.148 151.201C304.257 138.898 303.754 128.075 302.667 118.905C294.77 124.846 286.357 132.469 277.588 141.637V141.639ZM255.35 126.514C260.38 131.398 266.969 136.076 274.705 140.159C283.336 131.369 291.641 124.059 299.497 118.214C285.117 119.353 270.299 122.12 255.35 126.514ZM252.984 124.169C267.296 120.033 281.474 117.372 295.297 116.113C278.933 112.736 262.227 110.849 245.481 110.62C246.215 114.852 248.73 119.491 252.984 124.171V124.169ZM224.209 202.905C240.344 179.411 256.329 159.35 271.785 143.183C263.276 138.627 255.99 133.391 250.62 127.924C224.277 136.251 198.207 149.192 173.102 166.389C185.92 179.479 203.522 192.066 224.209 202.902V202.905ZM142.421 372.382C148.347 375.392 154.45 378.337 160.608 381.144C191.313 395.114 223.433 405.953 256.071 413.396C264.851 386.012 272.843 356.634 279.886 326.021C250.743 319.36 222.091 309.676 194.674 297.198C189.197 294.702 183.812 292.112 178.649 289.48C164.499 317.461 152.319 345.334 142.423 372.38L142.421 372.382ZM178.634 284.178C182.739 276.191 186.925 268.31 191.221 260.565C186.871 268.282 182.629 276.123 178.485 284.098L178.636 284.178H178.634ZM99.8776 233.979C80.3452 258.11 65.0256 283.717 54.3568 310.124C75.059 331.582 103.834 352.227 137.707 369.925C147.615 342.934 159.89 315.115 174.202 287.202C144.082 271.441 118.444 253.089 99.8776 233.977V233.979ZM176.377 282.985C190.433 255.966 205.656 230.291 221.696 206.623C200.477 195.487 182.413 182.533 169.297 169.037C144.583 186.466 122.251 207.082 102.883 230.33C121.193 249.224 146.544 267.399 176.379 282.985H176.377ZM283.268 321.953C283.336 321.966 283.404 321.979 283.472 321.994C285.661 312.013 287.7 302.084 289.575 292.236C287.619 302.069 285.525 311.985 283.268 321.953ZM297.026 234.401C276.392 229.666 256.097 222.817 236.687 213.975C232.895 212.252 229.145 210.422 225.488 208.577C209.72 232.355 194.7 258.139 180.796 285.265C185.933 287.884 191.248 290.446 196.646 292.901C223.777 305.256 252.132 314.833 280.933 321.411C287.634 291.707 293.045 262.449 297.026 234.401ZM117.859 452.095L118.104 450.602C118.104 450.589 118.117 450.561 118.117 450.534L118.374 448.989L118.415 449.002C121.651 430.311 127.25 409.072 135.161 385.728C136.302 382.392 137.485 379.014 138.682 375.679L138.668 375.665L138.927 374.975C138.953 374.878 138.995 374.771 139.023 374.675L139.784 372.601L140.259 371.285L140.272 371.298C150.167 344.268 162.348 316.394 176.498 288.411L176.484 288.398L177.015 287.353L176.839 287.272C162.173 315.769 149.626 344.211 139.553 371.798L138.48 374.741C137.203 378.293 135.98 381.808 134.837 385.157C126.762 408.961 121.121 430.65 118.063 449.612L117.859 450.873L117.791 451.321C116.895 457.073 116.255 462.511 115.861 467.611C116.282 463.027 116.921 458.159 117.723 453.072L117.71 453.059L117.859 452.095ZM115.984 447.727C119.123 428.969 124.67 407.702 132.567 384.385C133.654 381.157 134.85 377.753 136.101 374.321C102.283 356.66 73.4926 336.072 52.6021 314.641C51.4322 317.666 50.3041 320.718 49.2569 323.796C41.2521 347.396 37.4731 370.222 38.0164 391.667C57.3603 411.767 84.2863 431.109 115.984 447.725V447.727ZM34.279 392.957C22.3988 380.234 13.7674 367.418 8.58853 355.088C8.71121 355.889 8.83392 356.649 8.96976 357.476L9.01135 357.637C11.3488 367.402 13.3884 375.84 16.3655 384.995C19.3296 393.702 22.5631 401.325 26.2873 410.102C29.8209 417.034 32.3774 422.024 34.8376 426.431C38.0733 432.183 41.022 436.712 45.8065 443.902C46.3367 444.621 46.9216 445.353 47.478 446.086C39.6353 430.366 35.1772 412.57 34.279 392.957ZM115.305 451.796C84.2447 435.599 57.7262 416.734 38.288 397.08C39.6331 419.582 45.7233 439.589 56.5169 456.544C71.061 471.695 91.2462 486.273 114.991 498.834C112.286 486.94 112.367 471.164 115.302 451.796H115.305ZM19.2595 246.065C20.8499 264.837 31.8604 285.724 51.0533 306.6C61.8578 280.233 77.2607 254.746 96.8609 230.794C79.9246 212.523 69.9481 194.13 67.8144 177.284C46.4725 197.33 30.1211 220.456 19.2617 246.065H19.2595ZM19.1083 238.943C30.2962 214.381 46.4966 192.176 67.4178 172.943C67.0498 164.52 68.7914 156.707 72.474 149.585C50.5078 171.531 32.9865 197.872 21.229 227.128C20.0876 230.925 19.2857 234.844 19.1083 238.941V238.943ZM120.946 505.344C123.202 511.747 126.506 516.29 130.909 518.664C131.413 518.922 131.862 519.166 132.283 519.383C134.186 520.319 136.769 521.554 140.736 523.451C144.638 525.145 147.153 526.232 149 527.003C150.739 527.696 153.022 528.59 156.407 529.906L158.039 530.49C161.34 531.644 163.557 532.403 165.215 532.971C166.709 533.432 168.613 534.016 171.319 534.845L173.236 535.428C177.096 536.458 179.597 537.122 181.46 537.599C182.71 537.896 184.246 538.25 186.299 538.725C189.846 539.35 194.019 537.531 198.722 533.314C175.9 528.011 153.458 520.415 131.969 510.637C128.219 508.929 124.547 507.137 120.946 505.346V505.344ZM132.867 507.664C154.873 517.673 177.9 525.445 201.32 530.776C208.811 522.951 216.951 510.009 225.556 492.283C195.081 485.299 165.097 475.153 136.443 462.105C130.896 459.582 125.38 456.896 119.982 454.17C116.91 473.931 116.801 489.789 119.668 501.302C123.936 503.473 128.368 505.618 132.867 507.664ZM82.0014 140.621C74.9211 148.989 71.3852 158.633 71.4268 169.389C92.944 150.508 118.023 135.562 146.064 124.94C145.793 116.653 148.279 109.208 153.486 102.737L153.118 102.831L156.067 99.8339C156.093 99.8208 156.109 99.7946 156.122 99.7793L156.354 99.5475H156.38C158.801 97.1342 161.614 94.9635 164.753 92.983C133.818 103.047 105.72 119.432 82.0014 140.618V140.621ZM181.569 88.2109C172.449 91.3719 165.027 95.6849 159.793 101.001L159.752 101.027C153.526 107.363 150.454 114.863 150.535 123.312C179.269 113.018 209.417 107.767 240.206 107.767H240.409C240.477 104.593 241.524 101.731 243.467 99.1956L243.251 99.1541L244.841 97.5277L245.275 97.0796L245.356 97.0927C248.578 94.0672 253.295 91.7763 259.192 90.4187C246.32 85.3188 233.285 82.5382 220.412 82.2125C220.331 82.2125 220.264 82.2256 220.18 82.2256C206.981 83.1349 194.069 85.1548 181.565 88.2065L181.569 88.2109ZM238.915 81.6463C245.956 83.1109 253.692 85.5811 264.115 89.5269C271.182 88.5912 279.463 88.7945 288.202 90.069C286.191 88.1016 284.966 87.1244 283.295 86.3265C268.941 83.382 254.099 81.8102 238.915 81.6463ZM426.998 188.556C409.503 167.788 387.647 150.807 362.026 137.976C362.338 142.452 360.872 146.508 357.663 149.776C357.582 149.857 357.485 149.924 357.404 150.005C380.989 169.618 400.955 192.934 416.79 219.383C417.362 218.867 417.946 218.353 418.461 217.835C426.414 209.764 429.281 199.905 426.998 188.551V188.556ZM451.164 225.569C445.727 214.475 439.067 203.882 431.211 193.844C432.19 204.315 428.832 213.797 421.316 221.405C420.624 222.109 419.887 222.76 419.169 223.412C434.285 249.683 444.52 277.463 449.644 306.041C450.419 305.335 451.221 304.644 451.955 303.899C460.26 295.461 464.65 285.656 465.18 274.669C462.313 257.592 457.568 241.153 451.166 225.569H451.164ZM228.558 544.205C232.921 544.286 235.951 544.341 238.304 544.367C240.819 544.341 243.319 544.273 245.82 544.177C246.745 544.135 247.763 544.109 248.837 544.067C252.005 543.903 255.144 543.648 258.283 543.348C262.156 542.913 266.003 542.209 269.824 541.232C267.839 541.287 265.854 541.354 263.815 541.354C244.909 541.354 224.627 539.022 203.518 534.423C200.378 537.313 197.375 539.265 194.507 540.391C196.205 540.716 197.566 540.961 198.681 541.164C200.624 541.462 203.22 541.842 207.163 542.426L207.652 542.507C212.232 542.996 215.196 543.307 217.44 543.525C219.683 543.687 222.686 543.877 227.322 544.177C227.729 544.19 228.152 544.19 228.56 544.203L228.558 544.205ZM1.00439 313.001C1.00439 183.416 106.647 78 236.51 78C272.435 78 306.485 86.097 336.987 100.514H337.585L337.475 100.746C357.102 110.078 375.223 122.068 391.41 136.214C393.246 137.678 395.04 139.198 396.765 140.798L397.498 141.488C397.809 141.775 398.11 142.059 398.41 142.343L398.844 142.75L398.723 142.885C402.011 146.005 405.205 149.205 408.305 152.502L408.441 152.379L408.848 152.812C409.282 153.273 409.705 153.735 410.126 154.196L410.954 155.09C413.087 157.422 415.017 159.742 416.825 162.063C437.187 186.247 452.75 214.554 462.076 245.545C463.476 249.832 464.782 254.158 465.855 258.554L465.897 258.541L466.346 260.495L466.359 260.508L466.74 262.231C466.795 262.489 466.847 262.747 466.902 263.018L467.623 266.299L467.419 266.341C467.461 266.679 467.461 267.005 467.513 267.331C470.436 282.115 472 297.375 472 312.999C472 332.734 469.527 351.912 464.904 370.238L465.108 370.292L464.251 373.56C463.912 374.809 463.423 376.002 462.987 377.222C434.918 475.667 344.039 548 236.508 548C198.148 548 161.951 538.736 129.912 522.448L129.695 522.867V522.325C53.3995 483.412 1 404.215 1 312.999L1.00439 313.001Z" fill="#08FE08"/>
<mask id="path-2-inside-1_2009_273" fill="white">
<path d="M429.494 216.271C427.899 214.637 426.79 212.638 425.977 210.569C425.753 213.21 427.39 216.192 429.377 217.965C430.418 218.894 431.956 219.75 433.252 219.293C434.046 219.015 434.486 218.262 434.508 217.375C433.239 219.083 430.913 217.727 429.492 216.271H429.494Z"/>
<path d="M434.802 167.707C424.187 162.086 414.015 161.478 406.166 165.997C396.799 171.39 391.501 181.364 391.29 193.221C391.237 196.159 391.401 199.171 391.787 202.224C389.319 205.626 386.319 209.254 382.835 212.568C381.449 212.998 380.118 213.575 378.87 214.294C378.47 214.524 378.065 214.781 377.601 215.1L355.401 228.747C344.977 234.748 341.865 248.649 348.464 259.736C355.063 270.821 368.914 274.956 379.291 268.982L381.574 267.782L402.94 289.817C404.891 292.137 408.595 292.692 411.405 291.075C411.43 291.061 411.455 291.047 411.477 291.03L417.146 287.297C417.766 286.889 418.247 286.334 418.559 285.696C418.672 285.54 418.777 285.377 418.867 285.205C420.984 281.22 421.082 280.743 421.134 280.487C421.468 278.843 420.758 277.197 419.327 276.297L413.765 272.794C411.327 271.259 409.167 269.363 407.344 267.156L399.893 258.147L402.041 257.016C402.71 256.718 403.264 256.439 403.784 256.14C405.03 255.421 406.192 254.559 407.254 253.572C412.368 252.292 417.594 251.779 422.308 251.664C424.123 252.887 425.973 253.996 427.844 254.981C439.321 261.022 448.93 261.644 459.49 255.565C467.342 251.046 471.781 242.027 471.992 230.172C472.195 218.799 468.452 206.06 461.453 194.303C454.453 182.546 444.99 173.1 434.806 167.707H434.802ZM413.401 229.991L425.016 221.569L411.83 227.42L418.349 222.316L410.221 225.242C410.149 225.125 410.077 225.008 410.007 224.89L414.545 221.321L408.798 222.835C408.718 222.694 408.638 222.554 408.56 222.413L412.177 219.512L407.48 220.416C407.398 220.259 407.315 220.101 407.233 219.944L410.494 217.371L406.281 218.019C406.198 217.848 406.12 217.676 406.038 217.505L409.124 215.069L405.211 215.671C405.139 215.506 405.067 215.34 404.997 215.174L422.021 208.649C421.477 211.211 422.109 214.49 423.965 217.612C424.963 219.289 426.178 220.685 427.48 221.739L413.623 230.283C413.549 230.183 413.475 230.084 413.401 229.983V229.991ZM434.295 220.917C432.5 221.949 428.821 220.273 426.404 216.216C423.99 212.16 424.304 208.182 426.098 207.149C427.893 206.117 431.574 207.793 433.989 211.849C436.403 215.905 436.089 219.883 434.295 220.917ZM403.942 195.052C402.969 196.48 401.979 197.903 400.918 199.27C402.42 195.803 404.25 192.464 406.092 189.15C408.51 184.797 411.132 180.527 413.947 176.397C414.921 174.97 415.91 173.549 416.974 172.18C415.473 175.648 413.641 178.986 411.802 182.299C409.385 186.653 406.755 190.921 403.942 195.048V195.052ZM400.776 191.161C401.474 188.29 402.669 185.506 403.923 182.834C405.178 180.165 406.572 177.464 408.352 175.091C407.658 177.962 406.461 180.747 405.205 183.418C403.95 186.087 402.552 188.787 400.776 191.161ZM427.468 244.371L436.28 244.847L424.039 241.063L444.428 240.718L421.218 237.534L439.208 234.784L422.476 234.124L436.289 222.97C436.362 222.912 436.426 222.845 436.486 222.774C439.245 220.418 439.286 215.241 436.43 210.444C435.777 209.345 435.032 208.37 434.229 207.53L448.842 195.298L430.825 204.954C430.114 204.596 429.398 204.34 428.692 204.195L446.331 188.658C445.399 187.436 444.432 186.241 443.432 185.078L426.339 201.164L441.233 182.628C438.432 179.65 435.365 176.904 431.973 174.459C431.913 174.417 431.854 174.376 431.794 174.334L416.128 192.443L430.065 173.185C428.618 172.283 427.115 171.473 425.593 170.689C436.233 173.839 447.836 183.531 456.088 197.392C468.877 218.875 468.849 242.36 456.024 249.742C448.257 254.214 437.549 251.767 427.472 244.369L427.468 244.371ZM405.094 288.022C405.069 287.992 405.045 287.963 405.018 287.937L384.157 266.421L384.798 266.084L389.528 269.644L386.902 264.978L387.742 264.536L392.362 268.013L389.797 263.455L390.686 262.987L395.195 266.381L392.69 261.933L393.329 261.598L403.166 273.492C405.003 275.715 407.18 277.626 409.633 279.17L415.551 282.897C415.918 283.13 416.132 283.507 416.136 283.937C416.14 284.367 415.935 284.749 415.573 284.987L409.941 288.694C408.517 289.492 406.244 289.415 405.098 288.022H405.094ZM398.893 259.643C401.174 262.086 403.334 264.641 405.49 267.191C406.966 268.935 408.459 270.611 410.221 272.087C411.896 273.49 413.744 274.639 415.569 275.837C417.278 276.957 419.425 277.997 419.668 280.234C418.961 278.399 417.267 277.652 415.658 276.699C413.787 275.59 411.896 274.482 410.194 273.131C406.755 270.405 404.149 266.73 401.54 263.266C400.64 262.07 399.747 260.869 398.891 259.643H398.893ZM362.968 243.024C362.003 238.685 362.023 234.31 363.547 230.084C363.109 230.756 362.701 231.451 362.348 232.194C360.491 236.105 360.042 240.246 360.51 244.5C359.545 240.161 359.565 235.786 361.089 231.56C360.652 232.232 360.243 232.926 359.89 233.67C358.034 237.581 357.584 241.722 358.052 245.976C357.087 241.637 357.108 237.262 358.631 233.036C358.194 233.708 357.785 234.402 357.432 235.145C355.576 239.056 355.126 243.198 355.594 247.452C354.629 243.113 354.65 238.737 356.174 234.511C355.736 235.184 355.328 235.878 354.974 236.621C353.118 240.532 352.669 244.674 353.137 248.928C352.172 244.589 352.192 240.213 353.716 235.987C353.278 236.66 352.87 237.354 352.517 238.097C350.661 242.008 350.211 246.15 350.679 250.404C349.714 246.063 349.735 241.685 351.26 237.457C351.617 236.47 352.053 235.535 352.541 234.639C353.761 233.278 355.204 232.091 356.865 231.134L374.369 220.374C373.382 221.589 370.322 226.522 369.725 227.778C367.867 231.689 367.419 235.83 367.887 240.084C366.922 235.745 366.943 231.37 368.466 227.144C368.029 227.816 367.62 228.511 367.267 229.254C365.411 233.165 364.961 237.306 365.429 241.56C364.464 237.221 364.485 232.846 366.008 228.62C365.571 229.292 365.163 229.987 364.809 230.73C362.953 234.641 362.504 238.782 362.972 243.036L362.968 243.024ZM410.65 245.073C411.59 245.734 412.563 246.323 413.565 246.852C411.639 246.388 409.767 245.73 407.952 244.821C404.585 243.135 401.704 240.793 399.135 238.089C401.472 241.263 404.205 244.036 407.531 246.22C408.404 246.794 409.305 247.303 410.227 247.759C408.36 247.377 406.539 246.804 404.759 245.988C401.375 244.439 398.48 242.176 395.91 239.541C398.269 242.661 401.049 245.364 404.433 247.406C405.246 247.896 406.077 248.332 406.925 248.722C405.268 248.447 403.64 248.009 402.039 247.369C398.45 245.936 395.386 243.692 392.688 240.991C395.107 244.106 397.977 246.78 401.484 248.69C402.195 249.075 402.915 249.421 403.644 249.732C401.987 249.524 400.351 249.138 398.741 248.534C395.183 247.2 392.148 245.069 389.465 242.443C391.931 245.544 394.883 248.191 398.486 249.964C399.092 250.261 399.702 250.529 400.318 250.771C398.716 250.624 397.129 250.299 395.559 249.764C391.978 248.542 388.937 246.479 386.239 243.894C388.781 247.02 391.846 249.653 395.593 251.292C396.049 251.492 396.507 251.674 396.965 251.841C395.474 251.749 393.988 251.494 392.505 251.05C388.851 249.954 385.752 247.918 383.013 245.342C385.537 248.379 388.557 250.895 392.257 252.439C392.715 252.631 393.177 252.805 393.639 252.962C392.183 252.916 390.723 252.702 389.267 252.294C385.613 251.272 382.537 249.33 379.79 246.79C382.344 249.8 385.338 252.136 389.031 253.655C389.604 253.891 390.183 254.091 390.766 254.266C384.736 253.6 379.007 249.952 375.577 244.189C371.158 236.769 371.792 227.58 376.938 221.674C383.204 217.684 388.461 212.241 392.575 207.011C394.049 214.28 396.819 221.694 401.074 228.838C404.765 235.038 409.174 240.48 414.009 245.025C412.995 244.623 411.999 244.161 411.024 243.624C407.718 241.807 404.895 239.388 402.359 236.64C404.673 239.874 407.365 242.768 410.65 245.075V245.073ZM412.843 236.995C407.989 231.37 404.059 225.04 401.09 218.27C397.542 210.181 395.47 201.152 396.016 192.316C396.524 184.108 399.532 175.553 406.691 170.738C407.237 170.37 407.816 170.057 408.387 169.73C405.455 171.745 403.024 174.197 401.281 177.292C399.24 180.914 398.162 185.015 397.739 189.116C396.852 197.711 398.643 206.44 401.743 214.462C404.303 221.086 407.876 227.358 412.223 233.007C417.52 239.892 424.146 246.091 431.971 250.115C439.212 253.84 447.741 255.726 455.564 252.617C456.145 252.387 456.702 252.102 457.266 251.835C453.985 253.727 450.515 254.822 446.692 254.963C442.405 255.123 438.165 254.208 434.186 252.675C425.86 249.469 418.59 243.658 412.843 236.997V236.995ZM469.555 219.362C470.12 222.623 470.481 225.928 470.38 229.242C470.292 232.111 469.89 234.871 469.222 237.659C470.292 232.286 470.308 226.956 469.465 221.545C468.543 215.621 466.676 209.81 464.247 204.322C459.262 193.063 451.743 182.63 442.087 174.794C437.305 170.914 431.971 167.98 426.035 166.225C431.359 167.588 436.202 169.922 440.635 173.133C445.643 176.757 449.961 181.08 453.837 185.849C457.817 190.745 461.172 196.193 463.837 201.881C466.45 207.453 468.504 213.305 469.555 219.364V219.362Z"/>
</mask>
<path d="M429.494 216.271C427.899 214.637 426.79 212.638 425.977 210.569C425.753 213.21 427.39 216.192 429.377 217.965C430.418 218.894 431.956 219.75 433.252 219.293C434.046 219.015 434.486 218.262 434.508 217.375C433.239 219.083 430.913 217.727 429.492 216.271H429.494Z" fill="#08FE08"/>
<path d="M434.802 167.707C424.187 162.086 414.015 161.478 406.166 165.997C396.799 171.39 391.501 181.364 391.29 193.221C391.237 196.159 391.401 199.171 391.787 202.224C389.319 205.626 386.319 209.254 382.835 212.568C381.449 212.998 380.118 213.575 378.87 214.294C378.47 214.524 378.065 214.781 377.601 215.1L355.401 228.747C344.977 234.748 341.865 248.649 348.464 259.736C355.063 270.821 368.914 274.956 379.291 268.982L381.574 267.782L402.94 289.817C404.891 292.137 408.595 292.692 411.405 291.075C411.43 291.061 411.455 291.047 411.477 291.03L417.146 287.297C417.766 286.889 418.247 286.334 418.559 285.696C418.672 285.54 418.777 285.377 418.867 285.205C420.984 281.22 421.082 280.743 421.134 280.487C421.468 278.843 420.758 277.197 419.327 276.297L413.765 272.794C411.327 271.259 409.167 269.363 407.344 267.156L399.893 258.147L402.041 257.016C402.71 256.718 403.264 256.439 403.784 256.14C405.03 255.421 406.192 254.559 407.254 253.572C412.368 252.292 417.594 251.779 422.308 251.664C424.123 252.887 425.973 253.996 427.844 254.981C439.321 261.022 448.93 261.644 459.49 255.565C467.342 251.046 471.781 242.027 471.992 230.172C472.195 218.799 468.452 206.06 461.453 194.303C454.453 182.546 444.99 173.1 434.806 167.707H434.802ZM413.401 229.991L425.016 221.569L411.83 227.42L418.349 222.316L410.221 225.242C410.149 225.125 410.077 225.008 410.007 224.89L414.545 221.321L408.798 222.835C408.718 222.694 408.638 222.554 408.56 222.413L412.177 219.512L407.48 220.416C407.398 220.259 407.315 220.101 407.233 219.944L410.494 217.371L406.281 218.019C406.198 217.848 406.12 217.676 406.038 217.505L409.124 215.069L405.211 215.671C405.139 215.506 405.067 215.34 404.997 215.174L422.021 208.649C421.477 211.211 422.109 214.49 423.965 217.612C424.963 219.289 426.178 220.685 427.48 221.739L413.623 230.283C413.549 230.183 413.475 230.084 413.401 229.983V229.991ZM434.295 220.917C432.5 221.949 428.821 220.273 426.404 216.216C423.99 212.16 424.304 208.182 426.098 207.149C427.893 206.117 431.574 207.793 433.989 211.849C436.403 215.905 436.089 219.883 434.295 220.917ZM403.942 195.052C402.969 196.48 401.979 197.903 400.918 199.27C402.42 195.803 404.25 192.464 406.092 189.15C408.51 184.797 411.132 180.527 413.947 176.397C414.921 174.97 415.91 173.549 416.974 172.18C415.473 175.648 413.641 178.986 411.802 182.299C409.385 186.653 406.755 190.921 403.942 195.048V195.052ZM400.776 191.161C401.474 188.29 402.669 185.506 403.923 182.834C405.178 180.165 406.572 177.464 408.352 175.091C407.658 177.962 406.461 180.747 405.205 183.418C403.95 186.087 402.552 188.787 400.776 191.161ZM427.468 244.371L436.28 244.847L424.039 241.063L444.428 240.718L421.218 237.534L439.208 234.784L422.476 234.124L436.289 222.97C436.362 222.912 436.426 222.845 436.486 222.774C439.245 220.418 439.286 215.241 436.43 210.444C435.777 209.345 435.032 208.37 434.229 207.53L448.842 195.298L430.825 204.954C430.114 204.596 429.398 204.34 428.692 204.195L446.331 188.658C445.399 187.436 444.432 186.241 443.432 185.078L426.339 201.164L441.233 182.628C438.432 179.65 435.365 176.904 431.973 174.459C431.913 174.417 431.854 174.376 431.794 174.334L416.128 192.443L430.065 173.185C428.618 172.283 427.115 171.473 425.593 170.689C436.233 173.839 447.836 183.531 456.088 197.392C468.877 218.875 468.849 242.36 456.024 249.742C448.257 254.214 437.549 251.767 427.472 244.369L427.468 244.371ZM405.094 288.022C405.069 287.992 405.045 287.963 405.018 287.937L384.157 266.421L384.798 266.084L389.528 269.644L386.902 264.978L387.742 264.536L392.362 268.013L389.797 263.455L390.686 262.987L395.195 266.381L392.69 261.933L393.329 261.598L403.166 273.492C405.003 275.715 407.18 277.626 409.633 279.17L415.551 282.897C415.918 283.13 416.132 283.507 416.136 283.937C416.14 284.367 415.935 284.749 415.573 284.987L409.941 288.694C408.517 289.492 406.244 289.415 405.098 288.022H405.094ZM398.893 259.643C401.174 262.086 403.334 264.641 405.49 267.191C406.966 268.935 408.459 270.611 410.221 272.087C411.896 273.49 413.744 274.639 415.569 275.837C417.278 276.957 419.425 277.997 419.668 280.234C418.961 278.399 417.267 277.652 415.658 276.699C413.787 275.59 411.896 274.482 410.194 273.131C406.755 270.405 404.149 266.73 401.54 263.266C400.64 262.07 399.747 260.869 398.891 259.643H398.893ZM362.968 243.024C362.003 238.685 362.023 234.31 363.547 230.084C363.109 230.756 362.701 231.451 362.348 232.194C360.491 236.105 360.042 240.246 360.51 244.5C359.545 240.161 359.565 235.786 361.089 231.56C360.652 232.232 360.243 232.926 359.89 233.67C358.034 237.581 357.584 241.722 358.052 245.976C357.087 241.637 357.108 237.262 358.631 233.036C358.194 233.708 357.785 234.402 357.432 235.145C355.576 239.056 355.126 243.198 355.594 247.452C354.629 243.113 354.65 238.737 356.174 234.511C355.736 235.184 355.328 235.878 354.974 236.621C353.118 240.532 352.669 244.674 353.137 248.928C352.172 244.589 352.192 240.213 353.716 235.987C353.278 236.66 352.87 237.354 352.517 238.097C350.661 242.008 350.211 246.15 350.679 250.404C349.714 246.063 349.735 241.685 351.26 237.457C351.617 236.47 352.053 235.535 352.541 234.639C353.761 233.278 355.204 232.091 356.865 231.134L374.369 220.374C373.382 221.589 370.322 226.522 369.725 227.778C367.867 231.689 367.419 235.83 367.887 240.084C366.922 235.745 366.943 231.37 368.466 227.144C368.029 227.816 367.62 228.511 367.267 229.254C365.411 233.165 364.961 237.306 365.429 241.56C364.464 237.221 364.485 232.846 366.008 228.62C365.571 229.292 365.163 229.987 364.809 230.73C362.953 234.641 362.504 238.782 362.972 243.036L362.968 243.024ZM410.65 245.073C411.59 245.734 412.563 246.323 413.565 246.852C411.639 246.388 409.767 245.73 407.952 244.821C404.585 243.135 401.704 240.793 399.135 238.089C401.472 241.263 404.205 244.036 407.531 246.22C408.404 246.794 409.305 247.303 410.227 247.759C408.36 247.377 406.539 246.804 404.759 245.988C401.375 244.439 398.48 242.176 395.91 239.541C398.269 242.661 401.049 245.364 404.433 247.406C405.246 247.896 406.077 248.332 406.925 248.722C405.268 248.447 403.64 248.009 402.039 247.369C398.45 245.936 395.386 243.692 392.688 240.991C395.107 244.106 397.977 246.78 401.484 248.69C402.195 249.075 402.915 249.421 403.644 249.732C401.987 249.524 400.351 249.138 398.741 248.534C395.183 247.2 392.148 245.069 389.465 242.443C391.931 245.544 394.883 248.191 398.486 249.964C399.092 250.261 399.702 250.529 400.318 250.771C398.716 250.624 397.129 250.299 395.559 249.764C391.978 248.542 388.937 246.479 386.239 243.894C388.781 247.02 391.846 249.653 395.593 251.292C396.049 251.492 396.507 251.674 396.965 251.841C395.474 251.749 393.988 251.494 392.505 251.05C388.851 249.954 385.752 247.918 383.013 245.342C385.537 248.379 388.557 250.895 392.257 252.439C392.715 252.631 393.177 252.805 393.639 252.962C392.183 252.916 390.723 252.702 389.267 252.294C385.613 251.272 382.537 249.33 379.79 246.79C382.344 249.8 385.338 252.136 389.031 253.655C389.604 253.891 390.183 254.091 390.766 254.266C384.736 253.6 379.007 249.952 375.577 244.189C371.158 236.769 371.792 227.58 376.938 221.674C383.204 217.684 388.461 212.241 392.575 207.011C394.049 214.28 396.819 221.694 401.074 228.838C404.765 235.038 409.174 240.48 414.009 245.025C412.995 244.623 411.999 244.161 411.024 243.624C407.718 241.807 404.895 239.388 402.359 236.64C404.673 239.874 407.365 242.768 410.65 245.075V245.073ZM412.843 236.995C407.989 231.37 404.059 225.04 401.09 218.27C397.542 210.181 395.47 201.152 396.016 192.316C396.524 184.108 399.532 175.553 406.691 170.738C407.237 170.37 407.816 170.057 408.387 169.73C405.455 171.745 403.024 174.197 401.281 177.292C399.24 180.914 398.162 185.015 397.739 189.116C396.852 197.711 398.643 206.44 401.743 214.462C404.303 221.086 407.876 227.358 412.223 233.007C417.52 239.892 424.146 246.091 431.971 250.115C439.212 253.84 447.741 255.726 455.564 252.617C456.145 252.387 456.702 252.102 457.266 251.835C453.985 253.727 450.515 254.822 446.692 254.963C442.405 255.123 438.165 254.208 434.186 252.675C425.86 249.469 418.59 243.658 412.843 236.997V236.995ZM469.555 219.362C470.12 222.623 470.481 225.928 470.38 229.242C470.292 232.111 469.89 234.871 469.222 237.659C470.292 232.286 470.308 226.956 469.465 221.545C468.543 215.621 466.676 209.81 464.247 204.322C459.262 193.063 451.743 182.63 442.087 174.794C437.305 170.914 431.971 167.98 426.035 166.225C431.359 167.588 436.202 169.922 440.635 173.133C445.643 176.757 449.961 181.08 453.837 185.849C457.817 190.745 461.172 196.193 463.837 201.881C466.45 207.453 468.504 213.305 469.555 219.364V219.362Z" fill="#08FE08"/>
<path d="M429.494 216.271C427.899 214.637 426.79 212.638 425.977 210.569C425.753 213.21 427.39 216.192 429.377 217.965C430.418 218.894 431.956 219.75 433.252 219.293C434.046 219.015 434.486 218.262 434.508 217.375C433.239 219.083 430.913 217.727 429.492 216.271H429.494Z" stroke="black" stroke-width="2" mask="url(#path-2-inside-1_2009_273)"/>
<path d="M434.802 167.707C424.187 162.086 414.015 161.478 406.166 165.997C396.799 171.39 391.501 181.364 391.29 193.221C391.237 196.159 391.401 199.171 391.787 202.224C389.319 205.626 386.319 209.254 382.835 212.568C381.449 212.998 380.118 213.575 378.87 214.294C378.47 214.524 378.065 214.781 377.601 215.1L355.401 228.747C344.977 234.748 341.865 248.649 348.464 259.736C355.063 270.821 368.914 274.956 379.291 268.982L381.574 267.782L402.94 289.817C404.891 292.137 408.595 292.692 411.405 291.075C411.43 291.061 411.455 291.047 411.477 291.03L417.146 287.297C417.766 286.889 418.247 286.334 418.559 285.696C418.672 285.54 418.777 285.377 418.867 285.205C420.984 281.22 421.082 280.743 421.134 280.487C421.468 278.843 420.758 277.197 419.327 276.297L413.765 272.794C411.327 271.259 409.167 269.363 407.344 267.156L399.893 258.147L402.041 257.016C402.71 256.718 403.264 256.439 403.784 256.14C405.03 255.421 406.192 254.559 407.254 253.572C412.368 252.292 417.594 251.779 422.308 251.664C424.123 252.887 425.973 253.996 427.844 254.981C439.321 261.022 448.93 261.644 459.49 255.565C467.342 251.046 471.781 242.027 471.992 230.172C472.195 218.799 468.452 206.06 461.453 194.303C454.453 182.546 444.99 173.1 434.806 167.707H434.802ZM413.401 229.991L425.016 221.569L411.83 227.42L418.349 222.316L410.221 225.242C410.149 225.125 410.077 225.008 410.007 224.89L414.545 221.321L408.798 222.835C408.718 222.694 408.638 222.554 408.56 222.413L412.177 219.512L407.48 220.416C407.398 220.259 407.315 220.101 407.233 219.944L410.494 217.371L406.281 218.019C406.198 217.848 406.12 217.676 406.038 217.505L409.124 215.069L405.211 215.671C405.139 215.506 405.067 215.34 404.997 215.174L422.021 208.649C421.477 211.211 422.109 214.49 423.965 217.612C424.963 219.289 426.178 220.685 427.48 221.739L413.623 230.283C413.549 230.183 413.475 230.084 413.401 229.983V229.991ZM434.295 220.917C432.5 221.949 428.821 220.273 426.404 216.216C423.99 212.16 424.304 208.182 426.098 207.149C427.893 206.117 431.574 207.793 433.989 211.849C436.403 215.905 436.089 219.883 434.295 220.917ZM403.942 195.052C402.969 196.48 401.979 197.903 400.918 199.27C402.42 195.803 404.25 192.464 406.092 189.15C408.51 184.797 411.132 180.527 413.947 176.397C414.921 174.97 415.91 173.549 416.974 172.18C415.473 175.648 413.641 178.986 411.802 182.299C409.385 186.653 406.755 190.921 403.942 195.048V195.052ZM400.776 191.161C401.474 188.29 402.669 185.506 403.923 182.834C405.178 180.165 406.572 177.464 408.352 175.091C407.658 177.962 406.461 180.747 405.205 183.418C403.95 186.087 402.552 188.787 400.776 191.161ZM427.468 244.371L436.28 244.847L424.039 241.063L444.428 240.718L421.218 237.534L439.208 234.784L422.476 234.124L436.289 222.97C436.362 222.912 436.426 222.845 436.486 222.774C439.245 220.418 439.286 215.241 436.43 210.444C435.777 209.345 435.032 208.37 434.229 207.53L448.842 195.298L430.825 204.954C430.114 204.596 429.398 204.34 428.692 204.195L446.331 188.658C445.399 187.436 444.432 186.241 443.432 185.078L426.339 201.164L441.233 182.628C438.432 179.65 435.365 176.904 431.973 174.459C431.913 174.417 431.854 174.376 431.794 174.334L416.128 192.443L430.065 173.185C428.618 172.283 427.115 171.473 425.593 170.689C436.233 173.839 447.836 183.531 456.088 197.392C468.877 218.875 468.849 242.36 456.024 249.742C448.257 254.214 437.549 251.767 427.472 244.369L427.468 244.371ZM405.094 288.022C405.069 287.992 405.045 287.963 405.018 287.937L384.157 266.421L384.798 266.084L389.528 269.644L386.902 264.978L387.742 264.536L392.362 268.013L389.797 263.455L390.686 262.987L395.195 266.381L392.69 261.933L393.329 261.598L403.166 273.492C405.003 275.715 407.18 277.626 409.633 279.17L415.551 282.897C415.918 283.13 416.132 283.507 416.136 283.937C416.14 284.367 415.935 284.749 415.573 284.987L409.941 288.694C408.517 289.492 406.244 289.415 405.098 288.022H405.094ZM398.893 259.643C401.174 262.086 403.334 264.641 405.49 267.191C406.966 268.935 408.459 270.611 410.221 272.087C411.896 273.49 413.744 274.639 415.569 275.837C417.278 276.957 419.425 277.997 419.668 280.234C418.961 278.399 417.267 277.652 415.658 276.699C413.787 275.59 411.896 274.482 410.194 273.131C406.755 270.405 404.149 266.73 401.54 263.266C400.64 262.07 399.747 260.869 398.891 259.643H398.893ZM362.968 243.024C362.003 238.685 362.023 234.31 363.547 230.084C363.109 230.756 362.701 231.451 362.348 232.194C360.491 236.105 360.042 240.246 360.51 244.5C359.545 240.161 359.565 235.786 361.089 231.56C360.652 232.232 360.243 232.926 359.89 233.67C358.034 237.581 357.584 241.722 358.052 245.976C357.087 241.637 357.108 237.262 358.631 233.036C358.194 233.708 357.785 234.402 357.432 235.145C355.576 239.056 355.126 243.198 355.594 247.452C354.629 243.113 354.65 238.737 356.174 234.511C355.736 235.184 355.328 235.878 354.974 236.621C353.118 240.532 352.669 244.674 353.137 248.928C352.172 244.589 352.192 240.213 353.716 235.987C353.278 236.66 352.87 237.354 352.517 238.097C350.661 242.008 350.211 246.15 350.679 250.404C349.714 246.063 349.735 241.685 351.26 237.457C351.617 236.47 352.053 235.535 352.541 234.639C353.761 233.278 355.204 232.091 356.865 231.134L374.369 220.374C373.382 221.589 370.322 226.522 369.725 227.778C367.867 231.689 367.419 235.83 367.887 240.084C366.922 235.745 366.943 231.37 368.466 227.144C368.029 227.816 367.62 228.511 367.267 229.254C365.411 233.165 364.961 237.306 365.429 241.56C364.464 237.221 364.485 232.846 366.008 228.62C365.571 229.292 365.163 229.987 364.809 230.73C362.953 234.641 362.504 238.782 362.972 243.036L362.968 243.024ZM410.65 245.073C411.59 245.734 412.563 246.323 413.565 246.852C411.639 246.388 409.767 245.73 407.952 244.821C404.585 243.135 401.704 240.793 399.135 238.089C401.472 241.263 404.205 244.036 407.531 246.22C408.404 246.794 409.305 247.303 410.227 247.759C408.36 247.377 406.539 246.804 404.759 245.988C401.375 244.439 398.48 242.176 395.91 239.541C398.269 242.661 401.049 245.364 404.433 247.406C405.246 247.896 406.077 248.332 406.925 248.722C405.268 248.447 403.64 248.009 402.039 247.369C398.45 245.936 395.386 243.692 392.688 240.991C395.107 244.106 397.977 246.78 401.484 248.69C402.195 249.075 402.915 249.421 403.644 249.732C401.987 249.524 400.351 249.138 398.741 248.534C395.183 247.2 392.148 245.069 389.465 242.443C391.931 245.544 394.883 248.191 398.486 249.964C399.092 250.261 399.702 250.529 400.318 250.771C398.716 250.624 397.129 250.299 395.559 249.764C391.978 248.542 388.937 246.479 386.239 243.894C388.781 247.02 391.846 249.653 395.593 251.292C396.049 251.492 396.507 251.674 396.965 251.841C395.474 251.749 393.988 251.494 392.505 251.05C388.851 249.954 385.752 247.918 383.013 245.342C385.537 248.379 388.557 250.895 392.257 252.439C392.715 252.631 393.177 252.805 393.639 252.962C392.183 252.916 390.723 252.702 389.267 252.294C385.613 251.272 382.537 249.33 379.79 246.79C382.344 249.8 385.338 252.136 389.031 253.655C389.604 253.891 390.183 254.091 390.766 254.266C384.736 253.6 379.007 249.952 375.577 244.189C371.158 236.769 371.792 227.58 376.938 221.674C383.204 217.684 388.461 212.241 392.575 207.011C394.049 214.28 396.819 221.694 401.074 228.838C404.765 235.038 409.174 240.48 414.009 245.025C412.995 244.623 411.999 244.161 411.024 243.624C407.718 241.807 404.895 239.388 402.359 236.64C404.673 239.874 407.365 242.768 410.65 245.075V245.073ZM412.843 236.995C407.989 231.37 404.059 225.04 401.09 218.27C397.542 210.181 395.47 201.152 396.016 192.316C396.524 184.108 399.532 175.553 406.691 170.738C407.237 170.37 407.816 170.057 408.387 169.73C405.455 171.745 403.024 174.197 401.281 177.292C399.24 180.914 398.162 185.015 397.739 189.116C396.852 197.711 398.643 206.44 401.743 214.462C404.303 221.086 407.876 227.358 412.223 233.007C417.52 239.892 424.146 246.091 431.971 250.115C439.212 253.84 447.741 255.726 455.564 252.617C456.145 252.387 456.702 252.102 457.266 251.835C453.985 253.727 450.515 254.822 446.692 254.963C442.405 255.123 438.165 254.208 434.186 252.675C425.86 249.469 418.59 243.658 412.843 236.997V236.995ZM469.555 219.362C470.12 222.623 470.481 225.928 470.38 229.242C470.292 232.111 469.89 234.871 469.222 237.659C470.292 232.286 470.308 226.956 469.465 221.545C468.543 215.621 466.676 209.81 464.247 204.322C459.262 193.063 451.743 182.63 442.087 174.794C437.305 170.914 431.971 167.98 426.035 166.225C431.359 167.588 436.202 169.922 440.635 173.133C445.643 176.757 449.961 181.08 453.837 185.849C457.817 190.745 461.172 196.193 463.837 201.881C466.45 207.453 468.504 213.305 469.555 219.364V219.362Z" stroke="black" stroke-width="2" mask="url(#path-2-inside-1_2009_273)"/>
<path d="M122.093 170.331H99.2L108.861 190.426L73.3554 170.331H0V94.1137H122.093V170.331Z" fill="white" stroke="black" stroke-width="2.59" stroke-linecap="round" stroke-linejoin="round"/>
<path d="M41.3756 131.709C41.3756 135.838 38.0262 139.173 33.903 139.173C29.7798 139.173 26.4304 135.827 26.4304 131.709C26.4304 127.591 29.7798 124.245 33.903 124.245C38.0262 124.245 41.3756 127.591 41.3756 131.709Z" fill="black"/>
<path d="M68.5247 131.709C68.5247 135.838 65.1753 139.173 61.0521 139.173C56.9289 139.173 53.5795 135.827 53.5795 131.709C53.5795 127.591 56.9289 124.245 61.0521 124.245C65.1753 124.245 68.5247 127.591 68.5247 131.709Z" fill="black"/>
<path d="M94.911 131.709C94.911 135.838 91.5616 139.173 87.4384 139.173C83.3152 139.173 79.9658 135.827 79.9658 131.709C79.9658 127.591 83.3152 124.245 87.4384 124.245C91.5616 124.245 94.911 127.591 94.911 131.709Z" fill="black"/>
</g>
<defs>
<clipPath id="clip0_2009_273">
<rect width="472" height="325" fill="white"/>
</clipPath>
</defs>
</svg>
