<svg width="68" height="40" viewBox="0 0 68 40" fill="none" xmlns="http://www.w3.org/2000/svg">
<path d="M10.0263 9.78929V19.314H19.2622V9.78929H10.0263Z" fill="#08FE08"/>
<path d="M19.2622 0V9.78929H28.8655V19.314H38.3638V9.78929H47.8622V0H19.2622Z" fill="#08FE08"/>
<path d="M57.2031 9.78929H47.8622V19.314H57.2031V9.78929Z" fill="#08FE08"/>
<path fill-rule="evenodd" clip-rule="evenodd" d="M19.5326 40V29.4459H24.2349C26.0952 29.4459 28.6272 30.7496 28.6272 33.4813C28.6272 35.2403 27.3354 36.5854 26.4569 36.9476L28.7822 40H26.6119L24.8033 37.4649H21.3929V40H19.5326ZM21.3929 31.0497V35.9129H24.39C25.5725 35.9129 26.6333 34.6651 26.6119 33.4813C26.5879 32.1528 25.5621 31.0497 24.2349 31.0497H21.3929Z" fill="white"/>
<path d="M1.52588e-05 29.4459H10.1797V31.1015H6.0975V40H4.03056V31.1015H1.52588e-05V29.4459Z" fill="white"/>
<path d="M56.8927 29.4459H58.8046V35.7577L64.437 29.4459H66.659L62.1117 34.516L67.124 40H64.9021L61.1299 35.7577L58.8046 38.1892V40H56.8927V29.4459Z" fill="white"/>
<path d="M38.1868 40V29.4459H47.5397V31.0497H40.0987V33.9469H45.9895V35.5507H40.0987V38.3962H47.5397V40H38.1868Z" fill="white"/>
</svg>
